<svg id="checked" xmlns="http://www.w3.org/2000/svg" width="21.42" height="21.42" viewBox="0 0 21.42 21.42">
  <g id="Group_2858" data-name="Group 2858" transform="translate(3.56 2.943)">
    <g id="Group_2857" data-name="Group 2857">
      <path id="Path_1199" data-name="Path 1199" d="M138.758,64.587a.882.882,0,0,0-1.248,0L126.92,75.147,123.1,71a.883.883,0,0,0-1.3,1.2l4.443,4.825a.882.882,0,0,0,.631.285h.019a.884.884,0,0,0,.623-.257l11.24-11.21A.883.883,0,0,0,138.758,64.587Z" transform="translate(-121.568 -64.327)" fill="#263238"/>
    </g>
  </g>
  <g id="Group_2860" data-name="Group 2860">
    <g id="Group_2859" data-name="Group 2859">
      <path id="Path_1200" data-name="Path 1200" d="M20.613,9.9a.807.807,0,0,0-.807.807,9.1,9.1,0,1,1-9.1-9.1A.807.807,0,1,0,10.71,0,10.71,10.71,0,1,0,21.42,10.71.807.807,0,0,0,20.613,9.9Z" fill="#263238"/>
    </g>
  </g>
</svg>
